<mxfile host="app.diagrams.net" agent="Mozilla/5.0 (Windows NT 10.0; Win64; x64) AppleWebKit/537.36 (KHTML, like Gecko) Chrome/131.0.0.0 Safari/537.36 OPR/116.0.0.0 (Edition std-1)" version="25.0.3">
  <diagram name="Page-1" id="o4A0zZ6bNe5WrH8BDHjk">
    <mxGraphModel dx="1392" dy="753" grid="1" gridSize="10" guides="1" tooltips="1" connect="1" arrows="1" fold="1" page="1" pageScale="1" pageWidth="850" pageHeight="1100" math="0" shadow="0">
      <root>
        <mxCell id="0" />
        <mxCell id="1" parent="0" />
        <mxCell id="heZYFbf71xcBM9f8rDkd-15" style="edgeStyle=orthogonalEdgeStyle;rounded=0;orthogonalLoop=1;jettySize=auto;html=1;entryX=0.5;entryY=0;entryDx=0;entryDy=0;" edge="1" parent="1" source="heZYFbf71xcBM9f8rDkd-4" target="heZYFbf71xcBM9f8rDkd-5">
          <mxGeometry relative="1" as="geometry" />
        </mxCell>
        <mxCell id="heZYFbf71xcBM9f8rDkd-4" value="Bruger tænder produktet" style="rounded=1;whiteSpace=wrap;html=1;" vertex="1" parent="1">
          <mxGeometry x="365" y="80" width="120" height="60" as="geometry" />
        </mxCell>
        <mxCell id="heZYFbf71xcBM9f8rDkd-14" style="edgeStyle=orthogonalEdgeStyle;rounded=0;orthogonalLoop=1;jettySize=auto;html=1;entryX=0.5;entryY=0;entryDx=0;entryDy=0;" edge="1" parent="1" source="heZYFbf71xcBM9f8rDkd-5" target="heZYFbf71xcBM9f8rDkd-9">
          <mxGeometry relative="1" as="geometry" />
        </mxCell>
        <mxCell id="heZYFbf71xcBM9f8rDkd-5" value="Bruger scanner en vare" style="rounded=0;whiteSpace=wrap;html=1;" vertex="1" parent="1">
          <mxGeometry x="365" y="210" width="120" height="60" as="geometry" />
        </mxCell>
        <mxCell id="heZYFbf71xcBM9f8rDkd-11" style="edgeStyle=orthogonalEdgeStyle;rounded=0;orthogonalLoop=1;jettySize=auto;html=1;entryX=0.5;entryY=1;entryDx=0;entryDy=0;" edge="1" parent="1" source="heZYFbf71xcBM9f8rDkd-9" target="heZYFbf71xcBM9f8rDkd-10">
          <mxGeometry relative="1" as="geometry" />
        </mxCell>
        <mxCell id="heZYFbf71xcBM9f8rDkd-29" style="edgeStyle=orthogonalEdgeStyle;rounded=0;orthogonalLoop=1;jettySize=auto;html=1;entryX=1;entryY=0.5;entryDx=0;entryDy=0;" edge="1" parent="1" source="heZYFbf71xcBM9f8rDkd-9" target="heZYFbf71xcBM9f8rDkd-17">
          <mxGeometry relative="1" as="geometry" />
        </mxCell>
        <mxCell id="heZYFbf71xcBM9f8rDkd-30" style="edgeStyle=orthogonalEdgeStyle;rounded=0;orthogonalLoop=1;jettySize=auto;html=1;" edge="1" parent="1" source="heZYFbf71xcBM9f8rDkd-9">
          <mxGeometry relative="1" as="geometry">
            <mxPoint x="270" y="480" as="targetPoint" />
          </mxGeometry>
        </mxCell>
        <mxCell id="heZYFbf71xcBM9f8rDkd-9" value="Kunne scanneren modtage brugbar information?" style="rhombus;whiteSpace=wrap;html=1;" vertex="1" parent="1">
          <mxGeometry x="300" y="320" width="250" height="100" as="geometry" />
        </mxCell>
        <mxCell id="heZYFbf71xcBM9f8rDkd-13" style="edgeStyle=orthogonalEdgeStyle;rounded=0;orthogonalLoop=1;jettySize=auto;html=1;" edge="1" parent="1" source="heZYFbf71xcBM9f8rDkd-10" target="heZYFbf71xcBM9f8rDkd-5">
          <mxGeometry relative="1" as="geometry">
            <Array as="points">
              <mxPoint x="560" y="240" />
              <mxPoint x="560" y="240" />
            </Array>
          </mxGeometry>
        </mxCell>
        <mxCell id="heZYFbf71xcBM9f8rDkd-10" value="&lt;div style=&quot;&quot;&gt;&lt;span style=&quot;background-color: initial;&quot;&gt;En lyd afspilles for at indikere fejl&lt;/span&gt;&lt;/div&gt;" style="shape=parallelogram;perimeter=parallelogramPerimeter;whiteSpace=wrap;html=1;fixedSize=1;align=center;" vertex="1" parent="1">
          <mxGeometry x="560" y="200" width="210" height="70" as="geometry" />
        </mxCell>
        <mxCell id="heZYFbf71xcBM9f8rDkd-16" value="Lyd afspilles for at indikere succes" style="shape=parallelogram;perimeter=parallelogramPerimeter;whiteSpace=wrap;html=1;fixedSize=1;" vertex="1" parent="1">
          <mxGeometry x="170" y="480" width="180" height="60" as="geometry" />
        </mxCell>
        <mxCell id="heZYFbf71xcBM9f8rDkd-22" style="edgeStyle=orthogonalEdgeStyle;rounded=0;orthogonalLoop=1;jettySize=auto;html=1;entryX=0.5;entryY=1;entryDx=0;entryDy=0;" edge="1" parent="1" source="heZYFbf71xcBM9f8rDkd-17" target="heZYFbf71xcBM9f8rDkd-20">
          <mxGeometry relative="1" as="geometry" />
        </mxCell>
        <mxCell id="heZYFbf71xcBM9f8rDkd-17" value="Information sendes til hjemmeside/app" style="rounded=0;whiteSpace=wrap;html=1;" vertex="1" parent="1">
          <mxGeometry x="120" y="395" width="120" height="60" as="geometry" />
        </mxCell>
        <mxCell id="heZYFbf71xcBM9f8rDkd-28" style="edgeStyle=orthogonalEdgeStyle;rounded=0;orthogonalLoop=1;jettySize=auto;html=1;entryX=0.5;entryY=1;entryDx=0;entryDy=0;" edge="1" parent="1" source="heZYFbf71xcBM9f8rDkd-20" target="heZYFbf71xcBM9f8rDkd-27">
          <mxGeometry relative="1" as="geometry" />
        </mxCell>
        <mxCell id="heZYFbf71xcBM9f8rDkd-20" value="Stregkodeinformation afkodes og forsimples, så det kan blive tilføjet til en letlæselig liste." style="rounded=0;whiteSpace=wrap;html=1;" vertex="1" parent="1">
          <mxGeometry x="67.5" y="250" width="145" height="90" as="geometry" />
        </mxCell>
        <mxCell id="heZYFbf71xcBM9f8rDkd-31" style="edgeStyle=orthogonalEdgeStyle;rounded=0;orthogonalLoop=1;jettySize=auto;html=1;exitX=1;exitY=0.5;exitDx=0;exitDy=0;entryX=0;entryY=0.5;entryDx=0;entryDy=0;" edge="1" parent="1" source="heZYFbf71xcBM9f8rDkd-27" target="heZYFbf71xcBM9f8rDkd-5">
          <mxGeometry relative="1" as="geometry" />
        </mxCell>
        <mxCell id="heZYFbf71xcBM9f8rDkd-33" style="edgeStyle=orthogonalEdgeStyle;rounded=0;orthogonalLoop=1;jettySize=auto;html=1;entryX=0;entryY=0.5;entryDx=0;entryDy=0;" edge="1" parent="1" source="heZYFbf71xcBM9f8rDkd-27" target="heZYFbf71xcBM9f8rDkd-32">
          <mxGeometry relative="1" as="geometry">
            <mxPoint x="30" y="640" as="targetPoint" />
            <Array as="points">
              <mxPoint x="30" y="170" />
              <mxPoint x="30" y="425" />
              <mxPoint x="31" y="425" />
              <mxPoint x="31" y="630" />
            </Array>
          </mxGeometry>
        </mxCell>
        <mxCell id="heZYFbf71xcBM9f8rDkd-27" value="Er brugeren færdig med at scanne varer?" style="rhombus;whiteSpace=wrap;html=1;" vertex="1" parent="1">
          <mxGeometry x="50" y="130" width="260" height="80" as="geometry" />
        </mxCell>
        <mxCell id="heZYFbf71xcBM9f8rDkd-32" value="Brugeren slukker produktet" style="rounded=1;whiteSpace=wrap;html=1;" vertex="1" parent="1">
          <mxGeometry x="365" y="600" width="120" height="60" as="geometry" />
        </mxCell>
        <mxCell id="heZYFbf71xcBM9f8rDkd-34" value="Ja" style="text;html=1;align=center;verticalAlign=middle;whiteSpace=wrap;rounded=0;" vertex="1" parent="1">
          <mxGeometry x="7.5" y="130" width="60" height="30" as="geometry" />
        </mxCell>
        <mxCell id="heZYFbf71xcBM9f8rDkd-35" value="Nej" style="text;html=1;align=center;verticalAlign=middle;whiteSpace=wrap;rounded=0;" vertex="1" parent="1">
          <mxGeometry x="280" y="130" width="60" height="30" as="geometry" />
        </mxCell>
        <mxCell id="heZYFbf71xcBM9f8rDkd-36" value="Nej" style="text;html=1;align=center;verticalAlign=middle;whiteSpace=wrap;rounded=0;" vertex="1" parent="1">
          <mxGeometry x="530" y="330" width="60" height="30" as="geometry" />
        </mxCell>
        <mxCell id="heZYFbf71xcBM9f8rDkd-37" value="Ja" style="text;html=1;align=center;verticalAlign=middle;whiteSpace=wrap;rounded=0;" vertex="1" parent="1">
          <mxGeometry x="270" y="330" width="60" height="30" as="geometry" />
        </mxCell>
      </root>
    </mxGraphModel>
  </diagram>
</mxfile>
